<?xml version="1.0" standalone="no"?>
<!DOCTYPE svg PUBLIC "-//W3C//DTD SVG 20010904//EN"
        "http://www.w3.org/TR/2001/REC-SVG-20010904/DTD/svg10.dtd">
<svg version="1.0" xmlns="http://www.w3.org/2000/svg"
     width="16.000000pt" height="16.000000pt" viewBox="0 0 16.000000 16.000000"
     preserveAspectRatio="xMidYMid meet">
    <g transform="translate(0.000000,16.000000) scale(0.006154,-0.006154)"
       fill="#e4001c" stroke="none">
        <path d="M1169 2586 c-2 -2 -24 -7 -49 -10 -305 -41 -597 -200 -789 -427 -99
-117 -128 -160 -190 -284 -86 -175 -121 -323 -126 -540 -3 -138 0 -175 20
-270 38 -182 92 -316 184 -457 63 -96 85 -124 186 -223 175 -172 395 -288 648
-342 87 -19 337 -25 432 -11 280 42 523 166 725 368 185 185 303 404 356 660
19 90 26 339 12 433 -66 452 -370 838 -798 1014 -65 27 -172 57 -275 79 -36 7
-329 16 -336 10z m-199 -506 c68 -27 152 -81 180 -117 25 -32 21 -62 -14 -100
-41 -43 -118 -180 -157 -279 -34 -83 -55 -154 -84 -279 -3 -16 27 36 67 115
237 464 506 737 678 686 105 -32 260 -138 260 -180 0 -9 -25 -52 -55 -95 -105
-150 -239 -478 -266 -652 -39 -253 58 -304 225 -118 27 30 94 117 150 193 55
77 119 159 141 184 37 40 42 43 68 33 53 -20 55 -96 7 -234 -145 -413 -462
-714 -731 -695 -113 8 -178 67 -221 197 -31 95 -34 338 -7 506 20 120 69 322
95 383 7 17 11 32 9 32 -6 0 -137 -233 -191 -340 -91 -183 -175 -402 -190
-498 -3 -19 -7 -44 -10 -56 -2 -11 -7 -50 -10 -86 -4 -36 -11 -68 -17 -71 -14
-10 -76 1 -135 23 -69 26 -159 113 -195 190 -49 105 -60 169 -54 313 4 72 9
141 12 155 3 14 8 45 11 70 3 25 10 65 16 90 5 25 11 52 13 60 56 267 178 536
266 589 34 21 44 19 139 -19z"/>
    </g>
</svg>